
<svg viewBox="39.1655 37.8774 268.2362 257.5945" width="268.236px" height="257.595px" xmlns="http://www.w3.org/2000/svg">
  <defs>
    <clipPath id="clipPath18" clipPathUnits="userSpaceOnUse">
      <path id="path16" d="M 0,253.159 H 270.212 V 0 H 0 Z"/>
    </clipPath>
  </defs>
  <g transform="matrix(1, 0, 0, 1, 0, -2.842170943040401e-14)">
    <path stroke-width="0" d="M 126.957 129.411 C 132.315 129.162 135.444 128.872 138.826 129.85 C 141.849 130.724 144.546 132.105 146.518 134.466 C 148.722 137.103 150.531 143.886 150.914 145.455 C 151.049 146.01 150.899 145.636 150.914 146.334 C 150.973 149.093 152.471 166.001 151.793 173.587 C 151.248 179.683 150.372 184.1 148.277 188.972 C 146.112 194.007 140.413 201.554 138.826 203.258 C 138.263 203.862 138.02 203.625 137.727 203.918 C 137.434 204.211 137.663 204.473 137.067 205.017 C 135.449 206.493 128.063 211.907 123.88 213.368 C 120.359 214.599 116.963 215.088 113.77 214.247 C 110.426 213.367 106.228 210.108 104.32 207.874 C 102.872 206.179 102.499 204.511 102.122 202.599 C 101.723 200.574 101.361 198.352 102.122 196.005 C 103.068 193.085 105.858 189.192 108.496 186.555 C 111.133 183.917 115.839 182.518 117.946 180.181 C 119.668 178.271 120.396 176.647 121.023 174.027 C 121.832 170.65 124.078 163.214 121.463 161.06 C 118.164 158.343 106.147 161.282 98.385 163.258 C 90.113 165.363 78.69 172.213 73.33 173.807 C 70.36 174.691 69.531 175.129 67.176 174.686 C 64.103 174.108 58.788 172.023 56.407 169.192 C 54.036 166.373 52.909 160.975 52.89 157.763 C 52.875 155.178 53.946 153.115 55.088 151.169 C 56.222 149.235 57.21 147.88 59.703 146.114 C 63.566 143.378 72.433 139.495 78.165 137.323 C 83.176 135.424 86.104 134.525 92.231 133.367 C 100.916 131.725 118.706 129.793 126.957 129.411 Z" style="stroke-width: 2px; stroke: rgb(255, 255, 255); fill: rgb(255, 255, 255);"/>
    <g transform="matrix(1.333333, 0, 0, -1.333333, 0, 337.545329)" id="g10">
      <g id="g12">
        <g clip-path="url(#clipPath18)" id="g14">
          <g transform="translate(101.7118,160.9954)" id="g20">
            <path id="path22" style="fill:#22323a;fill-opacity:1;fill-rule:nonzero;stroke:none" d="m 0,0 c 1.349,1.316 4.906,5.768 11.11,10.319 8.241,6.051 17.665,8.808 18.373,9.041 8.325,2.956 19.577,2.428 19.826,2.311 -0.212,-0.508 -5.93,-7.138 -9.298,-14.937 -0.942,-2.332 -2.087,-4.602 -2.666,-7.071 -0.374,-1.591 -2.323,-8.15 -1.403,-15.65 0.025,-0.337 0.217,-0.641 0.154,-1.082 -0.591,0.104 -1.078,0.362 -1.574,0.583 C 32.935,-15.774 1.362,-1.295 0.154,-0.779 -0.396,-0.546 -0.429,-0.416 0,0"/>
          </g>
          <g transform="translate(227.4152,152.217)" id="g24">
            <path id="path26" style="fill:#22323a;fill-opacity:1;fill-rule:nonzero;stroke:none" d="m 0,0 c -1.791,-10.423 -14.113,-29.496 -16.187,-32.506 -1.116,-1.4 -6,-8.629 -17.831,-12.91 -4.46,-1.374 -14.538,-4.043 -36.113,-2.611 -0.429,0.029 -0.391,0.275 -0.3,0.554 0.25,0.745 0.413,1.508 0.467,2.29 0.025,0.354 0.066,0.708 0.066,1.062 0.004,2.436 0,4.873 -0.004,7.304 0,0.321 0.004,0.642 -0.154,0.937 -0.121,0.234 -0.254,0.442 -0.558,0.409 -0.304,-0.034 -0.487,-0.225 -0.541,-0.513 -0.125,-0.699 -0.234,-1.403 -0.342,-2.103 -0.295,-1.94 -0.216,-3.902 -0.32,-5.85 -0.063,-1.125 -0.259,-2.22 -0.596,-3.294 -0.117,-0.375 -0.321,-0.617 -0.77,-0.563 -1.679,0.204 -8.142,0.775 -9.695,0.958 -0.4,0.046 -0.308,0.296 -0.208,0.55 0.516,1.362 0.916,2.761 1.299,4.168 0.379,1.391 0.433,2.79 0.204,4.223 -0.387,2.461 -1.062,4.86 -1.486,7.312 -0.05,0.279 -0.092,0.563 -0.184,0.829 -0.104,0.308 -0.316,0.529 -0.678,0.479 -0.367,-0.054 -0.471,-0.333 -0.492,-0.662 -0.083,-1.195 0.075,-2.378 0.275,-3.552 0.304,-1.803 0.637,-3.602 0.858,-5.422 0.137,-1.145 -0.029,-2.278 -0.333,-3.373 -0.35,-1.266 -0.791,-2.507 -1.312,-3.719 -0.204,-0.483 -0.5,-0.645 -1.037,-0.583 -1.674,0.196 -12.539,1.183 -13.667,1.299 -0.825,0.084 -0.858,0.375 -0.479,1.133 1.079,2.161 2.27,4.264 3.248,6.475 0.533,1.212 0.746,2.487 0.8,3.786 0.12,2.757 -0.067,5.505 -0.529,8.228 -0.133,0.788 -0.379,1.554 -0.691,2.291 -0.159,0.379 -0.371,0.724 -0.862,0.616 -0.483,-0.108 -0.571,-0.525 -0.55,-0.916 0.042,-0.745 0.146,-1.487 0.225,-2.228 0.204,-1.924 0.308,-3.856 0.383,-5.788 0.037,-0.941 0.05,-1.883 0.058,-2.824 0.021,-2.003 -0.779,-3.768 -1.67,-5.497 -0.728,-1.424 -1.491,-2.831 -2.228,-4.251 -0.154,-0.3 -0.404,-0.812 -0.783,-0.729 -12.163,1.128 -25.964,5.797 -27.638,6.63 -0.291,0.145 -0.4,0.312 -0.475,0.574 -3.606,17.074 -22.291,30.212 -37.957,28.709 -10.24,-0.979 -16.416,-7.658 -18.327,-13.134 -0.233,-0.354 -0.433,-0.3 -0.633,0.029 -0.558,0.928 -5.914,6.992 -7.213,16.182 -2.336,16.528 6.825,21.172 9.836,22.404 13.938,5.709 40.306,-2.936 43.555,-4.339 14.462,-6.259 23.644,-11.464 44.891,-20.355 1.907,-0.783 39.865,-16.982 41.539,-18.344 0.362,-0.141 0.483,-0.491 0.612,-0.829 0.479,-1.245 0.733,-2.569 1.341,-3.764 0.158,-0.317 0.345,-0.621 0.549,-0.908 0.179,-0.254 0.429,-0.47 0.767,-0.366 0.362,0.112 0.52,0.424 0.524,0.787 0,0.283 -0.046,0.566 -0.091,0.845 -0.225,1.353 -0.075,0.845 -3.469,13.501 -1.27,4.739 -4.506,18.972 1.453,36.85 0.038,0.199 0.05,0.453 0.3,0.52 0.225,0.054 0.346,-0.15 0.483,-0.283 1.154,-1.129 3.269,-3.969 4.16,-5.297 5.655,-6.909 11.752,-21.259 12.493,-23.204 0.466,-1.215 1.916,-5.846 2.045,-7.97 -0.154,-0.754 2.523,0.999 3.348,1.308 C -20.359,-4.368 -4.701,1.141 0.125,1.499 0.175,1.17 0.092,0.271 0,0 m -77.647,-70.418 c -0.163,-0.017 -0.321,-0.029 -0.475,-0.067 -0.708,-0.158 -0.75,-0.141 -0.92,0.541 -0.983,3.894 -2.17,7.729 -3.224,11.602 -0.366,1.337 -0.691,3.673 -2.036,3.332 -0.4,-0.1 0.042,-1.699 0.004,-2.549 1.807,-17.856 7.646,-28.096 14.529,-38.786 -0.179,-0.275 -0.383,-0.15 -0.562,-0.133 -2.557,0.22 -18.31,2.598 -26.497,8.536 -10.607,7.692 -16.062,25.965 -16.616,28.334 -0.333,1.437 -0.47,2.853 -0.637,4.327 -0.037,0.354 -0.15,0.7 -0.312,1.016 -0.167,0.325 -0.387,0.621 -0.821,0.558 -0.445,-0.062 -0.633,-0.391 -0.662,-0.787 -0.066,-0.887 -0.362,-4.589 0.733,-7.883 0.196,-0.883 0.437,-1.757 0.658,-2.636 0.034,-0.133 0.104,-0.266 0.05,-0.416 -0.183,-0.15 -0.375,-0.046 -0.562,-0.021 -2.095,0.283 -24.594,4.818 -25.336,6.084 9.399,5.268 9.474,16.424 9.487,17.931 0.004,0.492 0.187,0.571 0.649,0.537 11.556,-3.681 24.266,-5.534 25.99,-5.892 0.674,-0.137 0.712,-0.275 0.3,-0.829 -0.379,-0.512 -0.825,-0.987 -1.096,-1.574 -0.162,-0.354 -0.416,-0.762 -0.029,-1.124 0.292,-0.271 0.816,-0.154 1.241,0.275 0.591,0.591 1.12,1.245 1.524,1.978 0.296,0.537 0.629,0.749 1.304,0.708 3.373,-0.204 12.58,-1.262 13.833,-1.404 0.421,-0.05 0.538,-0.187 0.309,-0.579 -0.558,-0.949 -1.058,-1.932 -1.704,-2.827 -0.137,-0.192 -0.229,-0.396 -0.291,-0.621 -0.092,-0.329 -0.025,-0.599 0.229,-0.82 0.241,-0.212 0.525,-0.204 0.804,-0.087 0.962,0.399 1.645,1.095 2.09,2.028 0.333,0.691 0.658,1.382 0.97,2.078 0.167,0.374 0.434,0.524 0.842,0.508 1.249,-0.046 7.45,-0.792 9.332,-0.858 0.22,-0.009 0.512,0.091 0.629,-0.167 0.12,-0.254 -0.138,-0.42 -0.288,-0.579 -0.47,-0.483 -0.958,-0.949 -1.441,-1.42 -0.241,-0.241 -0.449,-0.504 -0.566,-0.828 -0.196,-0.554 -0.05,-1.112 0.362,-1.387 0.454,-0.3 0.946,-0.254 1.395,0.216 0.454,0.471 0.862,0.992 1.275,1.5 0.516,0.637 1.062,1.249 1.403,2.003 0.162,0.362 0.446,0.449 0.816,0.462 29.45,-1.528 42.055,3.485 45.383,6.163 0,-2.178 -23.982,-22.279 -52.066,-26.443 m -65.875,12.905 c -0.267,0.004 -0.496,0.079 -0.409,0.396 0.317,1.124 0.319,2.253 0.535,3.399 0.017,0.079 0.325,0.961 0.479,0.994 0.885,-0.945 1.928,-2.652 2.506,-4.015 -0.639,-0.716 -2.387,-0.774 -3.111,-0.774 m 9.267,8.835 c -0.604,-1.111 -1.16,-2.031 -1.851,-3.238 -0.7,1.132 -1.913,2.148 -2.407,3.316 -0.049,0.116 0.033,0.251 0.158,0.261 0.565,0.048 1.831,-0.098 2.075,-0.102 0.817,-0.012 1.787,-0.278 2.025,-0.237 m 1.297,4.52 c -1.032,1.062 -2.778,1.717 -3.733,3.565 0.363,0.213 1.212,0.132 1.5,0.115 0.533,-0.029 1.6,0.124 2.129,0.208 0.234,0.037 0.129,-0.64 0.163,-0.932 0.112,-0.945 0.233,-1.894 -0.059,-2.956 m -26.037,30.426 c 0.004,0.475 0.252,0.794 0.685,0.644 0.233,-0.079 0.908,-0.296 1.125,-0.413 0.874,-0.466 1.744,-0.949 2.611,-1.432 0.133,-0.071 0.308,-0.113 0.366,-0.383 -1.337,-0.504 -3.186,-1.969 -4.31,-2.776 -0.213,0.129 -0.202,0.7 -0.215,0.833 -0.083,1.004 -0.278,2.511 -0.262,3.527 m -12.499,1.522 c 0.183,0.192 0.527,0.355 0.741,0.408 0.989,0.247 1.542,0.283 2.425,0.389 0.603,0.072 1.411,0.144 2.027,0.061 0.333,-0.042 0.458,-0.171 0.308,-0.537 -0.554,-1.362 -0.91,-2.944 -1.905,-4.023 -0.425,-0.454 -0.706,-1.073 -1.076,-0.581 -0.696,0.92 -1.621,2.826 -2.299,3.759 -0.109,0.15 -0.275,0.287 -0.221,0.524 m 26.876,-43.916 c -0.004,-0.442 -0.025,-0.883 -0.187,-1.329 -25.715,8.425 -32.323,21.034 -32.323,21.913 0.016,9.707 31.186,10.419 42.917,-0.238 0.766,-0.695 1.47,-1.54 1.437,-2.715 -0.005,-0.237 -0.1,-0.391 -0.342,-0.474 -0.508,-0.175 -1.016,-0.309 -1.561,-0.304 -0.908,0.004 -1.812,0.012 -2.72,0 -0.974,-0.013 -1.349,-0.642 -0.787,-1.441 1.17,-1.658 2.399,-3.269 4.14,-4.394 0.766,-0.491 0.77,-0.491 0.549,-1.395 -0.108,-0.433 -0.146,-0.895 -0.308,-1.299 -0.129,0.112 -0.308,0.204 -0.487,0.279 l -0.004,0.004 c -0.209,0.084 -0.421,0.15 -0.563,0.188 -0.025,0.008 -0.05,0.012 -0.07,0.02 -0.067,0.021 -0.142,0.025 -0.213,0.021 -1.216,-0.046 -2.403,0.121 -3.589,0.379 -0.975,0.213 -1.325,-0.304 -1.104,-1.27 0.404,-1.736 1.428,-3.073 2.574,-4.347 0.62,-0.688 0.641,-0.667 0.12,-1.458 -0.474,-0.729 -0.912,-1.482 -1.578,-2.065 -0.416,-0.363 -0.529,-0.367 -0.816,0.095 -0.82,1.312 -1.628,2.628 -2.449,3.936 -0.299,0.483 -0.658,0.97 -1.291,0.857 -0.703,-0.129 -0.874,-0.762 -1.012,-1.365 -0.274,-1.183 -0.324,-2.391 -0.333,-3.598 m -4.597,-3.169 c -5.26,-4.244 -16.207,-13.992 -32.352,-10.919 -0.4,0.079 -0.554,0.091 -0.384,0.529 1.404,3.564 8.208,23.399 8.525,24.398 0.129,0.413 0.279,0.525 0.654,0.204 4.647,-4.647 14.795,-10.664 23.674,-13.571 0.116,-0.038 0.233,-0.096 0.274,-0.275 -0.07,-0.2 -0.254,-0.258 -0.391,-0.366 m -27.913,43.609 c -0.079,-0.991 -0.029,-2.615 -0.404,-3.693 -0.262,-0.758 -1.304,-0.085 -1.903,0.44 -0.483,0.416 -0.983,0.816 -1.479,1.212 -0.216,0.174 -0.391,0.354 -0.15,0.612 0.808,0.887 2.29,2.34 3.473,2.811 0.741,0.296 0.484,-0.412 0.463,-1.382 M 0.779,4.831 c -17.844,-3.827 -26.918,-12.373 -32.777,-17.84 -0.167,0.129 -2.761,7.208 -3.328,8.578 -1.441,3.507 -2.028,6.28 -9.952,18.935 -1.433,2.241 -6.592,9.02 -6.846,9.337 -1.366,1.274 -2.17,1.649 -3.54,-1.941 -6.167,-20.53 -4.868,-33.119 -0.516,-44.72 0.058,-0.175 0.166,-0.363 0.058,-0.558 -0.192,-0.075 -0.313,0.054 -0.442,0.137 -2.382,1.545 -27.534,12.06 -29.37,13.251 -0.475,0.304 -0.683,0.708 -0.796,1.249 -2.019,6.842 0.692,14.871 1.374,17.307 2.549,9.049 10.12,19.743 11.523,22.233 0.329,0.579 -0.375,0.954 -0.979,1.22 -3.123,1.412 -11.76,0.1 -13.175,-0.125 -2.178,-0.341 -15.8,-2.057 -27.397,-10.873 -5.776,-4.389 -11.211,-9.578 -12.56,-11.272 -0.279,-0.35 -0.529,-0.421 -0.953,-0.225 -1.341,0.612 -24.799,13.638 -51.267,10.873 -1.424,-0.15 -13.301,-1.291 -17.169,-13.597 -0.583,-1.861 -3.324,-13.748 8.082,-32.319 3.423,-5.573 12.772,-15.97 13.984,-17.223 0.3,-0.308 0.321,-0.5 0.088,-0.841 -1.254,-1.816 -8.404,-24.303 -9.845,-26.398 -0.629,-1.287 -0.808,-1.699 0.862,-2.036 20.314,-3.648 30.212,5.838 37.017,11.551 0.2,0.213 0.404,0.342 0.695,0.167 1.408,-0.312 2.328,-0.192 3.173,-0.604 2.77,-1.349 28.109,-6.721 29.329,-7.146 0.246,-0.087 0.425,-0.179 0.538,-0.445 1.149,-2.736 6.079,-19.439 23.482,-25.836 9.17,-3.369 22.058,-5.051 22.775,-5.001 1.207,0.083 1.724,0.733 1.157,1.791 -8.753,12.359 -11.381,22.541 -11.872,23.982 -0.246,0.641 -0.146,0.795 0.562,0.774 1.678,-0.045 19.889,4.335 23.199,5.905 11.719,5.031 19.119,10.998 21.805,13.21 2.656,2.182 5.151,4.522 7.491,7.033 1.487,1.603 2.89,3.273 4.256,4.981 1.545,1.928 3.028,3.902 4.602,5.805 1.665,2.019 3.152,4.16 4.568,6.354 9.748,15.962 12.805,25.798 13.367,27.776 0.412,1.453 0.862,2.894 1.12,4.377 0.25,1.432 -0.907,2.544 -2.323,2.174"/>
          </g>
          <g transform="translate(94.6408,113.7223)" id="g28">
            <path id="path30" style="fill:#f3a0c1;fill-opacity:1;fill-rule:nonzero;stroke:none" d="m 0,0 c -0.004,-0.237 -0.1,-0.391 -0.341,-0.475 -0.509,-0.175 -1.017,-0.308 -1.562,-0.304 -0.908,0.004 -1.812,0.013 -2.719,0 -0.975,-0.012 -1.35,-0.641 -0.787,-1.441 1.17,-1.657 2.398,-3.269 4.139,-4.393 0.766,-0.491 0.77,-0.491 0.55,-1.395 -0.109,-0.433 -0.146,-0.895 -0.309,-1.299 -0.129,0.112 -0.308,0.204 -0.487,0.279 l -0.004,0.004 c -0.154,0.108 -0.366,0.142 -0.562,0.187 -0.025,0.009 -0.05,0.013 -0.071,0.021 -0.067,0.021 -0.142,0.025 -0.212,0.021 -1.216,-0.046 -2.403,0.121 -3.59,0.379 -0.974,0.212 -1.324,-0.304 -1.103,-1.27 0.403,-1.737 1.428,-3.073 2.573,-4.348 0.621,-0.687 0.641,-0.666 0.121,-1.457 -0.475,-0.729 -0.912,-1.483 -1.578,-2.066 -0.417,-0.362 -0.529,-0.366 -0.817,0.096 -0.82,1.312 -1.628,2.628 -2.448,3.935 -0.3,0.483 -0.658,0.971 -1.291,0.858 -0.704,-0.129 -0.875,-0.762 -1.012,-1.366 -0.275,-1.182 -0.325,-2.39 -0.333,-3.598 -0.004,-0.441 -0.025,-0.882 -0.188,-1.328 -25.714,8.424 -32.323,21.034 -32.323,21.912 0.017,9.707 31.187,10.42 42.917,-0.237 C -0.67,2.02 0.033,1.174 0,0"/>
          </g>
          <g transform="translate(143.1173,94.6582)" id="g32">
            <path id="path34" style="fill:#d5ebf2;fill-opacity:1;fill-rule:nonzero;stroke:none" d="m 0,0 c 1.807,-17.857 7.646,-28.097 14.529,-38.786 -0.179,-0.275 -0.383,-0.15 -0.562,-0.134 -2.557,0.221 -18.31,2.599 -26.497,8.537 -10.607,7.692 -16.062,25.965 -16.616,28.334 -0.333,1.437 -0.47,2.853 -0.637,4.327 -0.038,0.354 -0.15,0.699 -0.312,1.016 -0.167,0.325 -0.388,0.62 -0.821,0.558 -0.445,-0.063 -0.633,-0.391 -0.662,-0.787 -0.066,-0.887 -0.362,-4.589 0.733,-7.883 0.196,-0.883 0.437,-1.757 0.658,-2.636 0.033,-0.133 0.104,-0.267 0.05,-0.417 -0.183,-0.149 -0.375,-0.045 -0.562,-0.02 -2.095,0.283 -24.595,4.818 -25.336,6.084 9.399,5.268 9.474,16.424 9.487,17.931 0.004,0.492 0.187,0.571 0.649,0.537 11.556,-3.681 24.265,-5.534 25.99,-5.892 0.674,-0.138 0.712,-0.275 0.299,-0.829 -0.379,-0.512 -0.824,-0.987 -1.095,-1.574 -0.162,-0.354 -0.416,-0.762 -0.029,-1.124 0.291,-0.271 0.816,-0.154 1.241,0.275 0.591,0.591 1.12,1.245 1.524,1.978 0.296,0.537 0.629,0.749 1.304,0.708 C -13.292,9.998 -4.085,8.941 -2.832,8.799 -2.411,8.749 -2.295,8.612 -2.524,8.22 -3.082,7.271 -3.581,6.288 -4.227,5.393 -4.364,5.201 -4.456,4.997 -4.518,4.772 -4.61,4.443 -4.543,4.173 -4.289,3.952 -4.048,3.74 -3.765,3.748 -3.486,3.864 c 0.962,0.4 1.645,1.096 2.091,2.028 0.333,0.692 0.658,1.383 0.97,2.078 0.167,0.375 0.433,0.525 0.841,0.509 C 1.666,8.433 7.866,7.687 9.749,7.621 9.969,7.612 10.261,7.712 10.377,7.454 10.498,7.2 10.24,7.033 10.09,6.875 9.62,6.392 9.132,5.926 8.649,5.455 8.408,5.214 8.2,4.951 8.083,4.627 7.887,4.073 8.033,3.515 8.445,3.24 8.899,2.94 9.39,2.986 9.84,3.456 c 0.454,0.471 0.862,0.991 1.275,1.499 0.516,0.638 1.061,1.25 1.403,2.004 0.162,0.362 0.445,0.449 0.816,0.462 29.45,-1.529 42.055,3.485 45.383,6.163 0,-2.178 -23.983,-22.279 -52.067,-26.443 -0.162,-0.017 -0.32,-0.03 -0.474,-0.067 -0.708,-0.158 -0.75,-0.142 -0.921,0.541 C 4.273,-8.491 3.086,-4.656 2.032,-0.783 1.666,0.554 1.341,2.89 -0.004,2.549 -0.404,2.449 0.037,0.85 0,0"/>
          </g>
          <g transform="translate(151.0212,182.6664)" id="g36">
            <path id="path38" style="fill:#618ca0;fill-opacity:1;fill-rule:nonzero;stroke:none" d="m 0,0 c -0.212,-0.508 -5.93,-7.138 -9.299,-14.937 -0.941,-2.332 -2.086,-4.602 -2.665,-7.071 -0.375,-1.591 -2.324,-8.15 -1.403,-15.65 0.025,-0.337 0.216,-0.641 0.154,-1.082 -0.592,0.104 -1.079,0.362 -1.574,0.583 -1.587,0.712 -33.161,15.191 -34.368,15.707 -0.55,0.233 -0.583,0.363 -0.154,0.779 1.349,1.316 4.905,5.768 11.11,10.319 8.241,6.051 17.665,8.808 18.373,9.041 C -11.502,0.645 -0.25,0.117 0,0"/>
          </g>
          <g transform="translate(78.5916,93.2881)" id="g40">
            <path id="path42" style="fill:#618ca0;fill-opacity:1;fill-rule:nonzero;stroke:none" d="m 0,0 c -0.071,-0.2 -0.254,-0.258 -0.391,-0.366 -5.26,-4.244 -16.208,-13.992 -32.353,-10.919 -0.4,0.079 -0.554,0.091 -0.383,0.529 1.403,3.564 8.208,23.399 8.524,24.398 0.129,0.412 0.279,0.525 0.654,0.204 C -19.302,9.199 -9.153,3.182 -0.275,0.275 -0.158,0.237 -0.042,0.179 0,0"/>
          </g>
          <g transform="translate(113.8923,124.8035)" id="g44">
            <path id="path46" style="fill:#618ca0;fill-opacity:1;fill-rule:nonzero;stroke:none" d="m 0,0 c -3.115,-0.466 -12.426,-0.754 -15.878,-0.608 -0.471,0.021 -0.788,0.246 -0.842,0.725 -0.045,0.399 0.271,0.987 0.787,1.082 4.51,0.808 13.239,0.296 15.812,0.142 C 0.304,1.328 0.604,1.154 0.641,0.691 0.679,0.237 0.396,0.062 0,0 m -18.627,14.567 c -2.757,0.808 -4.88,2.544 -6.654,4.685 -1.112,1.336 -1.3,2.969 -0.817,4.684 0.75,2.657 2.432,4.531 4.864,5.68 1.962,0.925 4.04,1.237 6.143,0.321 0.562,-0.246 4.922,-1.299 5.022,-5.813 0.083,-2.032 -0.525,-3.965 -1.449,-5.709 -1.071,-2.02 -2.845,-3.386 -5.114,-3.969 -0.666,-0.171 -1.324,-0.071 -1.995,0.121 M -5.672,6.055 c 0.388,-0.008 0.708,-0.15 0.804,-0.558 0.092,-0.404 -0.129,-0.687 -0.454,-0.883 -0.745,-0.441 -5.414,-0.62 -7.029,-0.183 -0.617,0.166 -0.675,1.112 -0.025,1.303 0.629,0.183 5.917,0.504 6.704,0.321 m 119.32,22.858 C 108.821,28.555 93.164,23.045 82.899,11.968 82.074,11.66 79.396,9.907 79.551,10.661 c -0.13,2.123 -1.579,6.754 -2.045,7.97 -0.741,1.945 -6.838,16.295 -12.493,23.204 -0.891,1.328 -3.007,4.168 -4.16,5.297 -0.138,0.133 -0.258,0.337 -0.483,0.283 -0.25,-0.067 -0.263,-0.321 -0.3,-0.521 -5.959,-17.877 -2.723,-32.111 -1.453,-36.85 3.394,-12.655 3.244,-12.147 3.468,-13.5 0.046,-0.279 0.092,-0.563 0.092,-0.846 -0.004,-0.362 -0.162,-0.674 -0.525,-0.787 -0.337,-0.104 -0.587,0.113 -0.766,0.367 -0.204,0.287 -0.391,0.591 -0.55,0.908 -0.608,1.195 -0.862,2.519 -1.34,3.764 -0.13,0.337 -0.25,0.687 -0.613,0.829 -1.674,1.361 -39.631,17.561 -41.538,18.343 -21.247,8.891 -30.429,14.097 -44.892,20.356 -3.248,1.403 -29.616,10.048 -43.554,4.339 -3.011,-1.233 -12.172,-5.876 -9.836,-22.404 1.299,-9.191 6.655,-15.254 7.213,-16.183 0.199,-0.329 0.399,-0.383 0.633,-0.029 1.911,5.476 8.087,12.156 18.327,13.134 15.666,1.504 34.351,-11.635 37.957,-28.708 0.075,-0.263 0.183,-0.429 0.475,-0.575 1.674,-0.833 15.474,-5.501 27.638,-6.629 0.379,-0.084 0.629,0.428 0.783,0.728 0.737,1.42 1.499,2.828 2.228,4.252 0.891,1.728 1.691,3.494 1.67,5.497 -0.008,0.941 -0.021,1.882 -0.058,2.823 -0.075,1.933 -0.179,3.865 -0.383,5.789 -0.08,0.741 -0.184,1.482 -0.225,2.228 -0.021,0.391 0.066,0.807 0.549,0.916 0.492,0.108 0.704,-0.238 0.862,-0.617 0.313,-0.737 0.558,-1.503 0.692,-2.29 0.462,-2.723 0.649,-5.472 0.529,-8.229 -0.055,-1.299 -0.267,-2.573 -0.8,-3.785 -0.979,-2.211 -2.17,-4.314 -3.248,-6.475 -0.379,-0.758 -0.346,-1.05 0.479,-1.133 1.128,-0.117 11.993,-1.104 13.667,-1.299 0.537,-0.063 0.833,0.1 1.037,0.583 0.52,1.211 0.962,2.452 1.312,3.718 0.304,1.096 0.47,2.228 0.333,3.373 -0.221,1.82 -0.554,3.619 -0.858,5.422 -0.2,1.175 -0.358,2.357 -0.275,3.552 0.021,0.329 0.125,0.608 0.491,0.663 0.363,0.05 0.575,-0.171 0.679,-0.479 0.092,-0.267 0.134,-0.55 0.183,-0.829 0.425,-2.453 1.1,-4.851 1.487,-7.313 0.229,-1.432 0.175,-2.831 -0.204,-4.222 -0.383,-1.408 -0.783,-2.807 -1.299,-4.169 -0.1,-0.254 -0.192,-0.503 0.208,-0.549 1.553,-0.183 8.016,-0.754 9.695,-0.958 0.449,-0.054 0.653,0.187 0.77,0.562 0.337,1.075 0.533,2.17 0.595,3.294 0.105,1.949 0.025,3.91 0.321,5.851 0.108,0.7 0.217,1.403 0.342,2.103 0.054,0.287 0.237,0.479 0.541,0.512 0.304,0.033 0.437,-0.175 0.558,-0.408 0.158,-0.296 0.154,-0.616 0.154,-0.937 0.004,-2.432 0.008,-4.868 0.004,-7.304 0,-0.354 -0.041,-0.708 -0.066,-1.062 -0.055,-0.783 -0.217,-1.545 -0.467,-2.29 -0.091,-0.279 -0.129,-0.525 0.3,-0.554 21.575,-1.433 31.653,1.237 36.113,2.611 11.831,4.281 16.715,11.51 17.831,12.909 2.074,3.011 14.396,22.083 16.187,32.507 0.091,0.27 0.175,1.17 0.125,1.499 m -180.993,-1.05 c -0.358,-0.241 -0.75,-0.408 -1.158,-0.529 -0.391,-0.112 -0.762,-0.033 -0.999,0.313 -0.233,0.345 -0.104,0.687 0.146,0.974 0.15,0.171 0.324,0.333 0.516,0.454 0.391,0.254 0.454,0.571 0.225,0.954 -0.487,0.808 -0.975,1.607 -1.649,2.282 -0.321,0.32 -0.679,0.57 -1.095,0.745 -0.442,0.188 -0.717,0.479 -0.575,0.987 0.133,0.479 0.533,0.512 0.945,0.504 0.991,-0.075 1.708,-0.666 2.366,-1.316 0.803,-0.787 1.449,-1.699 1.965,-2.703 0.512,-0.999 0.246,-2.023 -0.687,-2.665"/>
          </g>
          <g transform="translate(100.45,144.6464)" id="g48">
            <path id="path50" style="fill:#22323a;fill-opacity:1;fill-rule:nonzero;stroke:none" d="m 0,0 c -0.654,-1.387 -1.791,-2.278 -3.281,-2.653 -0.825,-0.208 -1.512,0.263 -2.208,0.617 -0.237,0.125 -0.137,0.329 -0.037,0.508 0.262,0.483 0.62,0.941 0.77,1.457 0.471,1.628 1.454,5.78 -2.053,6.746 2.045,2.403 7.346,1.187 7.6,-2.827 C 0.87,2.478 0.566,1.195 0,0 m -1.649,10.094 c -2.103,0.916 -4.181,0.604 -6.142,-0.32 -2.432,-1.15 -4.115,-3.024 -4.864,-5.68 -0.483,-1.716 -0.296,-3.349 0.816,-4.685 1.774,-2.141 3.898,-3.877 6.654,-4.685 0.671,-0.192 1.329,-0.292 1.995,-0.121 2.27,0.583 4.044,1.949 5.114,3.969 0.924,1.744 1.532,3.677 1.449,5.709 -0.1,4.514 -4.46,5.568 -5.022,5.813"/>
          </g>
          <g transform="translate(114.5336,125.4948)" id="g52">
            <path id="path54" style="fill:#f3a0c1;fill-opacity:1;fill-rule:nonzero;stroke:none" d="m 0,0 c 0.037,-0.454 -0.246,-0.629 -0.641,-0.691 -3.115,-0.467 -12.427,-0.754 -15.879,-0.608 -0.47,0.021 -0.787,0.245 -0.841,0.724 -0.046,0.4 0.271,0.987 0.787,1.083 4.51,0.808 13.238,0.296 15.812,0.142 C -0.337,0.637 -0.037,0.462 0,0"/>
          </g>
          <g transform="translate(108.5704,129.4175)" id="g56">
            <path id="path58" style="fill:#f3a0c1;fill-opacity:1;fill-rule:nonzero;stroke:none" d="M 0,0 C -0.745,-0.441 -5.414,-0.62 -7.029,-0.183 -7.646,-0.017 -7.704,0.929 -7.054,1.12 -6.426,1.303 -1.137,1.624 -0.35,1.441 0.037,1.433 0.358,1.291 0.454,0.883 0.546,0.479 0.325,0.196 0,0"/>
          </g>
          <g transform="translate(46.5473,152.6668)" id="g60">
            <path id="path62" style="fill:#22323a;fill-opacity:1;fill-rule:nonzero;stroke:none" d="m 0,0 c -0.358,-0.242 -0.75,-0.408 -1.158,-0.529 -0.391,-0.112 -0.762,-0.033 -0.999,0.312 -0.233,0.346 -0.104,0.688 0.146,0.975 0.15,0.171 0.324,0.333 0.516,0.454 0.391,0.254 0.454,0.57 0.225,0.953 C -1.757,2.973 -2.245,3.773 -2.919,4.447 -3.24,4.768 -3.598,5.018 -4.014,5.193 -4.456,5.38 -4.731,5.672 -4.589,6.18 -4.456,6.659 -4.056,6.692 -3.644,6.684 -2.653,6.609 -1.936,6.017 -1.278,5.368 -0.475,4.581 0.171,3.669 0.687,2.665 1.199,1.666 0.933,0.641 0,0"/>
          </g>
          <g transform="translate(83.3912,195.3114)" id="g64">
            <path id="path66" style="fill:#22323a;fill-opacity:1;fill-rule:nonzero;stroke:none" d="m 0,0 c -0.595,-2.449 -1.69,-4.71 -3.262,-6.734 -1.937,4.002 -3.656,7.671 -4.995,10.662 -0.592,1.321 -1.442,3.008 -2.567,5.213 0.777,0.865 1.647,1.516 2.59,1.939 1.588,0.711 3.101,0.825 4.496,0.337 l 0.009,-0.003 C -2.288,10.933 -1.225,9.889 -0.479,8.223 0.607,5.797 0.764,3.108 0,0 m -2.623,14.685 c -2.367,0.876 -4.727,0.799 -7.014,-0.224 -1.731,-0.774 -3.192,-1.96 -4.345,-3.523 -1.012,-1.377 -1.302,-2.499 -0.886,-3.428 0.197,-0.44 0.643,-0.947 1.653,-1.039 0.323,-0.691 1.038,-2.21 2.145,-4.555 l 1.529,-3.269 c 0.804,-1.719 1.37,-2.931 1.707,-3.629 0.229,-0.513 0.613,-1.37 1.216,-2.553 0.221,-0.492 0.403,-0.884 0.544,-1.184 -0.183,-0.073 -0.385,-0.158 -0.608,-0.258 -0.417,-0.186 -0.698,-0.528 -0.834,-1.01 -0.135,-0.455 -0.109,-0.91 0.072,-1.316 0.233,-0.521 0.571,-0.86 1.005,-1.009 0.156,-0.053 0.32,-0.08 0.493,-0.08 0.284,0 0.591,0.073 0.915,0.219 l 1.353,0.606 0.568,0.226 c 0.176,0.051 0.308,0.091 0.416,0.139 0.159,0.072 0.582,0.261 2.063,2.07 2.008,2.353 3.386,5.329 4.096,8.844 l 0.003,0.014 c 0.678,3.726 0.376,7.056 -0.898,9.899 -1.072,2.396 -2.813,4.096 -5.193,5.06"/>
          </g>
          <g transform="translate(95.3414,199.8143)" id="g68">
            <path id="path70" style="fill:#22323a;fill-opacity:1;fill-rule:nonzero;stroke:none" d="M 0,0 C 0.245,1.003 0.726,1.638 1.508,1.981 1.911,1.918 2.353,1.939 2.794,2.041 3.509,1.73 4.048,0.987 4.397,-0.17 4.678,-1.103 4.652,-2.189 4.32,-3.396 3.986,-4.604 3.528,-5.303 2.959,-5.474 2.396,-5.644 1.92,-5.539 1.392,-5.112 0.848,-4.712 0.456,-4.098 0.196,-3.234 -0.156,-2.068 -0.221,-0.977 0,0 m -0.452,-7.964 c 0.958,-0.772 1.981,-1.159 3.056,-1.159 0.465,0 0.941,0.073 1.425,0.219 0.954,0.288 1.812,0.99 2.622,2.145 0.755,1.074 1.155,2.142 1.223,3.259 0.023,0.342 0.037,0.633 0.048,0.873 l 0.021,0.412 C 8.028,-1.227 7.867,-0.049 7.464,1.284 7.067,2.601 6.304,3.738 5.186,4.674 4.07,5.568 2.808,6.072 1.403,6.173 0.651,6.194 0.48,6.144 0.411,6.123 0.224,6.066 0.037,5.981 -0.177,5.854 L -0.38,5.732 -0.468,5.513 C -0.583,5.226 -0.851,4.887 -1.298,4.465 -2.332,3.442 -2.973,2.094 -3.257,0.35 -3.53,-1.238 -3.45,-2.77 -3.018,-4.204 c 0.486,-1.609 1.358,-2.882 2.566,-3.76"/>
          </g>
          <g transform="translate(105.2193,203.7327)" id="g72">
            <path id="path74" style="fill:#22323a;fill-opacity:1;fill-rule:nonzero;stroke:none" d="M 0,0 C 0.199,-0.564 0.548,-1.048 1.016,-1.41 1.393,-2.324 1.65,-3.142 1.803,-3.907 1.955,-4.671 2.045,-5.56 2.078,-6.602 2.078,-7.12 2.07,-7.539 2.064,-7.864 L 2.057,-8.395 2.071,-8.531 c 0.115,-0.579 0.372,-1.043 0.832,-1.503 0.442,-0.443 0.905,-0.666 1.379,-0.666 0.101,0 0.202,0.01 0.304,0.03 0.918,0.184 1.177,1.306 0.988,4.295 -0.287,3.96 0.675,6.757 2.938,8.538 C 8.875,2.119 9.007,2.112 9.154,2.14 9.579,2.225 10.04,2.458 10.695,2.919 11.032,3.15 12.038,3.846 11.827,4.895 11.676,5.405 11.378,5.858 10.903,6.251 10.349,6.622 9.807,6.76 9.286,6.655 7.812,6.361 6.476,5.522 5.32,4.167 4.54,3.269 3.91,2.287 3.417,1.198 3.381,1.282 3.344,1.368 3.306,1.456 L 2.936,2.32 C 2.116,4.182 1.056,4.396 0.309,4.247 -0.127,4.161 -0.426,3.83 -0.561,3.326 -0.713,2.925 -0.755,2.546 -0.686,2.201 -0.561,1.57 -0.32,0.8 0,0"/>
          </g>
          <g transform="translate(140.3404,197.6644)" id="g76">
            <path id="path78" style="fill:#22323a;fill-opacity:1;fill-rule:nonzero;stroke:none" d="M 0,0 C 0.646,0.044 1.151,0.24 1.5,0.584 1.763,0.844 2.065,1.322 2.011,2.12 1.989,2.453 1.794,2.706 1.472,3.125 L 1.332,3.3 C 0.933,3.723 0.568,4.589 0.217,5.959 c -0.292,1.07 -0.467,2.086 -0.536,3.105 -0.059,0.865 -0.19,1.514 -0.403,1.984 -0.402,0.892 -1.035,0.983 -1.377,0.963 -1.096,-0.074 -2.838,-0.957 -6.66,-6.919 -0.338,1.213 -0.577,2.845 -0.715,4.872 -0.05,0.731 -0.192,2.957 -1.672,2.853 -0.813,-0.054 -2.168,-0.821 -6.312,-5.628 0.054,0.369 0.11,0.742 0.17,1.118 0.224,1.55 0.303,2.743 0.242,3.646 -0.163,2.406 -0.876,3.589 -2.123,3.499 -0.475,-0.033 -0.912,-0.232 -1.326,-0.602 -0.525,-0.452 -0.819,-0.975 -0.876,-1.554 l -0.02,-0.202 0.092,-0.182 c 0.409,-0.809 0.615,-1.407 0.647,-1.88 0.067,-0.993 -0.237,-3.502 -0.472,-5.298 -0.323,-2.323 -0.448,-4.075 -0.371,-5.205 0.162,-2.387 1.164,-2.925 2.036,-2.925 0.049,0 0.099,10e-4 0.148,0.005 0.858,0.058 1.419,0.883 1.666,2.444 0.225,1.337 0.989,2.838 2.345,4.597 0.788,1.058 1.606,1.977 2.439,2.747 0.29,-2.48 0.804,-4.392 1.558,-5.807 0.239,-0.475 0.956,-1.924 2.225,-1.834 0.789,0.054 1.495,0.685 2.156,1.933 0.947,1.795 2.065,3.515 3.33,5.128 0.928,-4.748 1.994,-6.821 3.481,-6.821 0.036,0 0.073,0.002 0.111,0.004"/>
          </g>
          <g transform="translate(144.4713,198.2288)" id="g80">
            <path id="path82" style="fill:#22323a;fill-opacity:1;fill-rule:nonzero;stroke:none" d="m 0,0 c 0.195,-0.419 0.791,-1.693 2.001,-1.745 0.022,-10e-4 0.046,-10e-4 0.068,-10e-4 0.765,0 1.296,0.536 1.329,1.352 C 3.425,0.241 3.22,0.87 2.803,1.441 2.91,3.153 3.385,5.474 4.216,8.344 L 4.31,8.641 c 0.234,0.741 0.436,1.383 0.611,1.975 l 0.027,0.168 c 0.063,1.469 -0.829,2.402 -2.445,2.558 L 2.289,13.363 2.101,13.26 C 1.542,12.956 1.222,12.48 1.198,11.918 1.196,11.867 1.19,11.717 1.256,11.155 0.492,8.06 -0.411,4.173 -0.462,2.943 -0.512,1.767 -0.362,0.808 0,0"/>
          </g>
          <g transform="translate(147.3131,221.931)" id="g84">
            <path id="path86" style="fill:#22323a;fill-opacity:1;fill-rule:nonzero;stroke:none" d="m 0,0 c -0.064,-1.52 0.792,-2.556 2.412,-2.918 l 0.092,-0.02 0.095,0.004 c 0.655,0.032 1.769,0.418 1.862,2.645 0.1,2.355 -1.32,2.942 -2.175,3.083 L 2.127,2.82 1.972,2.773 C 0.511,2.336 0.093,1.407 -0.007,0.641 -0.013,0.498 -0.009,0.366 -0.004,0.238 -0.001,0.156 0.003,0.077 0,0"/>
          </g>
          <g transform="translate(156.4635,196.5687)" id="g88">
            <path id="path90" style="fill:#22323a;fill-opacity:1;fill-rule:nonzero;stroke:none" d="m 0,0 c 0.056,0.496 -0.05,0.936 -0.322,1.338 0.18,1.372 0.572,2.999 1.21,5.031 0.057,0.253 0.737,2.2 1.558,4.55 0.34,-0.047 0.813,-0.111 1.402,-0.177 C 4.67,10.623 5.26,10.55 5.644,10.505 5.867,10.256 6.158,10.07 6.513,9.948 L 7.42,9.829 7.646,10.01 c 0.489,0.389 1.059,0.929 1.14,1.658 0.081,0.715 -0.197,1.349 -0.785,1.785 -0.502,0.372 -1.215,0.606 -2.184,0.715 -0.263,0.03 -0.756,0.086 -1.57,0.212 l -0.511,0.058 c 0.419,1.206 0.946,2.609 1.586,4.288 0.395,1.123 0.708,1.892 0.928,2.278 0.223,0.38 0.342,0.683 0.373,0.957 0.13,1.153 -0.479,1.947 -1.591,2.073 C 4.695,24.071 3.844,24.033 3.334,22.826 1.795,18.99 0.844,16.527 0.228,14.779 -0.33,14.803 -0.781,14.74 -1.149,14.602 -1.768,14.369 -2.146,13.901 -2.216,13.285 -2.27,12.809 -2.223,11.781 -0.942,11.334 L -2.397,6.754 C -3.076,4.613 -3.485,2.957 -3.611,1.833 -3.717,0.9 -3.67,0.185 -3.468,-0.353 c 0.256,-0.682 0.779,-1.101 1.471,-1.179 0.051,-0.005 0.101,-0.008 0.149,-0.008 0.401,0 0.761,0.178 1.098,0.377 0.554,0.376 0.714,0.84 0.75,1.163"/>
          </g>
          <g transform="translate(173.2174,201.5741)" id="g92">
            <path id="path94" style="fill:#22323a;fill-opacity:1;fill-rule:nonzero;stroke:none" d="m 0,0 c -0.195,-0.954 -0.733,-1.897 -1.599,-2.804 -0.868,-0.904 -1.609,-1.302 -2.185,-1.182 -0.576,0.117 -0.945,0.436 -1.208,1.062 -0.288,0.611 -0.341,1.337 -0.161,2.221 0.244,1.193 0.705,2.185 1.363,2.94 0.631,0.701 1.291,1.036 2.049,1.036 0.072,0 0.145,-0.002 0.22,-0.008 C -1.197,3.018 -0.797,2.825 -0.36,2.707 0.12,2.094 0.242,1.185 0,0 M 2.993,3.89 C 2.436,5.206 1.563,6.249 0.375,7.005 -0.279,7.382 -0.45,7.417 -0.521,7.431 -0.712,7.47 -0.922,7.484 -1.17,7.473 L -1.404,7.462 -1.586,7.312 C -1.822,7.114 -2.219,6.943 -2.813,6.784 -4.208,6.374 -5.413,5.491 -6.491,4.09 -7.485,2.823 -8.142,1.437 -8.441,-0.031 c -0.337,-1.648 -0.173,-3.182 0.472,-4.528 0.685,-1.626 1.862,-2.62 3.498,-2.954 0.238,-0.049 0.481,-0.073 0.732,-0.073 0.782,0 1.638,0.237 2.595,0.716 1.173,0.588 2.032,1.337 2.623,2.288 0.184,0.291 0.334,0.542 0.458,0.749 l 0.213,0.349 c 0.543,0.83 0.96,1.942 1.24,3.308 0.275,1.349 0.143,2.713 -0.397,4.066"/>
          </g>
          <g transform="translate(178.9498,191.0184)" id="g96">
            <path id="path98" style="fill:#22323a;fill-opacity:1;fill-rule:nonzero;stroke:none" d="m 0,0 c 0.104,-0.032 0.207,-0.049 0.309,-0.049 0.771,0 1.494,0.956 2.6,3.36 1.628,3.622 3.802,5.626 6.64,6.119 0.3,-0.213 0.41,-0.281 0.554,-0.326 0.415,-0.126 0.93,-0.141 1.725,-0.045 0.407,0.044 1.624,0.177 1.934,1.201 0.111,0.526 0.066,1.052 -0.168,1.633 -0.313,0.589 -0.727,0.967 -1.232,1.122 C 10.925,13.457 9.351,13.353 7.691,12.709 6.577,12.288 5.558,11.724 4.606,11 c 0.005,0.054 0.01,0.11 0.015,0.167 l 0.096,1.048 C 4.876,14.244 4.044,14.936 3.319,15.159 2.894,15.29 2.474,15.141 2.115,14.761 1.792,14.48 1.575,14.167 1.472,13.829 1.281,13.21 1.128,12.418 1.031,11.568 0.938,10.978 1.016,10.386 1.255,9.844 1.152,8.86 0.991,8.017 0.763,7.273 0.533,6.528 0.19,5.703 -0.275,4.771 -0.521,4.315 -0.726,3.951 -0.886,3.668 -0.992,3.479 -1.079,3.324 -1.145,3.203 L -1.197,3.076 C -1.371,2.511 -1.365,1.981 -1.179,1.359 -0.962,0.631 -0.565,0.173 0,0"/>
          </g>
          <g transform="translate(203.5875,196.6615)" id="g100">
            <path id="path102" style="fill:#22323a;fill-opacity:1;fill-rule:nonzero;stroke:none" d="m 0,0 c -1.154,0.498 -2.174,-0.568 -2.498,-0.908 -1.302,-1.301 -2.574,-2.278 -3.781,-2.901 -1.079,-0.553 -1.94,-0.719 -2.489,-0.483 -0.05,0.021 -0.142,0.075 -0.208,0.236 -0.023,0.048 -0.048,0.123 -0.002,0.231 0.242,0.558 0.768,1.522 1.564,2.864 0.812,1.361 1.384,2.421 1.699,3.148 0.297,0.686 0.467,1.377 0.537,2.212 C -5.132,5.603 -5.69,6.101 -6.165,6.306 -6.654,6.518 -7.096,6.567 -7.48,6.455 -7.773,6.369 -8.175,6.145 -8.423,5.57 -8.52,5.35 -8.597,4.985 -8.626,4.623 -8.673,4.343 -8.737,3.995 -8.825,3.791 -9.09,3.18 -9.569,2.292 -10.232,1.064 l -0.122,-0.226 c -0.715,-1.199 -1.284,-2.271 -1.641,-3.1 -0.496,-1.145 -0.575,-2.202 -0.256,-3.067 0.243,-1.015 0.925,-1.771 2.026,-2.248 1.188,-0.513 2.579,-0.411 4.247,0.307 0.466,0.195 0.92,0.419 1.366,0.676 -0.368,-0.727 -0.716,-1.344 -1.041,-1.847 -2.532,-3.871 -5.986,-4.789 -10.571,-2.806 -0.269,0.117 -0.781,0.409 -1.532,0.842 l -0.108,0.051 c -0.927,0.341 -1.756,-0.016 -2.153,-0.933 -0.3,-0.696 -0.199,-1.419 0.287,-2.036 0.406,-0.515 1.075,-0.97 2.044,-1.39 1.865,-0.806 3.682,-1.21 5.435,-1.21 1.137,0 2.247,0.17 3.325,0.51 l 0.008,0.002 c 3.271,1.078 5.966,4.023 8.014,8.755 l 1.125,2.6 C 0.647,-3.071 0.868,-2.293 0.896,-1.68 0.946,-0.578 0.356,-0.154 0,0"/>
          </g>
          <g transform="translate(107.8805,58.1029)" id="g104">
            <path id="path106" style="fill:#22323a;fill-opacity:1;fill-rule:nonzero;stroke:none" d="m 0,0 c -0.927,1.884 -2.111,2.988 -3.617,3.375 -3.008,0.773 -6.107,-0.727 -9.218,-4.458 -2.487,-3.03 -4.163,-6.182 -4.981,-9.372 -0.642,-2.503 -0.677,-4.696 -0.103,-6.514 0.698,-2.281 2.274,-3.751 4.683,-4.368 0.553,-0.143 1.301,-0.211 2.32,-0.211 0.268,0 0.555,0.005 0.861,0.014 1.422,0.043 2.651,0.204 3.766,0.493 0.763,0.208 1.192,0.301 1.264,0.317 l 0.155,0.053 c 0.697,0.331 1.128,0.805 1.283,1.409 0.112,0.436 0.033,0.935 -0.249,1.481 -0.292,0.492 -0.665,0.801 -1.113,0.916 -0.292,0.076 -0.55,0.002 -1.65,-0.302 l -0.461,-0.126 c -2.077,-0.596 -3.775,-0.707 -5.191,-0.345 -1.144,0.294 -1.866,0.891 -2.208,1.829 -0.371,1.017 -0.319,2.469 0.155,4.314 0.725,2.826 2.074,5.51 4.011,7.984 2.046,2.65 3.897,3.785 5.496,3.375 0.397,-0.102 0.728,-0.339 0.956,-0.66 0.045,-0.078 0.149,-0.294 0.324,-0.653 l 0.347,-0.707 c 0.385,-0.884 0.842,-1.4 1.361,-1.533 1.144,-0.295 1.993,0.202 2.281,1.321 C 0.614,-1.815 0.473,-1.094 0,0"/>
          </g>
          <g transform="translate(116.4513,41.3641)" id="g108">
            <path id="path110" style="fill:#22323a;fill-opacity:1;fill-rule:nonzero;stroke:none" d="m 0,0 c -0.134,-0.965 -0.611,-1.941 -1.417,-2.9 -0.82,-0.971 -1.512,-1.404 -2.105,-1.32 -0.582,0.081 -0.971,0.376 -1.273,0.984 -0.327,0.59 -0.426,1.312 -0.302,2.207 0.167,1.205 0.564,2.224 1.172,3.019 0.629,0.795 1.317,1.171 2.15,1.171 h 0.048 C -1.388,2.936 -0.977,2.77 -0.533,2.679 -0.013,2.097 0.166,1.197 0,0 M -0.072,7.014 C -0.742,7.346 -0.922,7.372 -0.997,7.383 -1.188,7.41 -1.399,7.41 -1.641,7.384 L -1.876,7.358 -2.049,7.195 C -2.273,6.982 -2.658,6.787 -3.24,6.59 -4.606,6.092 -5.752,5.135 -6.738,3.668 -7.649,2.34 -8.216,0.915 -8.422,-0.569 c -0.231,-1.665 0.03,-3.186 0.761,-4.49 0.787,-1.578 2.025,-2.494 3.679,-2.723 0.162,-0.023 0.326,-0.034 0.493,-0.034 0.849,0 1.766,0.293 2.786,0.887 1.133,0.661 1.942,1.463 2.472,2.45 0.164,0.302 0.297,0.561 0.408,0.775 l 0.191,0.364 c 0.489,0.862 0.835,2 1.026,3.38 C 3.583,1.402 3.365,2.755 2.739,4.072 2.099,5.351 1.162,6.336 -0.072,7.014"/>
          </g>
          <g transform="translate(136.1647,46.3651)" id="g112">
            <path id="path114" style="fill:#22323a;fill-opacity:1;fill-rule:nonzero;stroke:none" d="M 0,0 C -0.785,0.049 -1.24,-0.667 -1.386,-0.896 -3.002,-3.401 -4.51,-5.404 -6,-7.021 c -2.321,-2.56 -3.723,-3.104 -4.432,-3.163 0.007,0.124 0.076,0.608 0.293,1.584 0.858,3.905 1.237,5.894 1.269,6.652 0.092,2.191 -0.86,2.56 -1.438,2.585 -0.324,0.012 -0.807,-0.075 -1.292,-0.597 -0.201,-0.246 -0.471,-0.635 -0.494,-1.176 -0.003,-0.074 -0.01,-0.231 0.016,-0.414 l -0.012,-0.297 c -0.036,-0.849 -0.317,-2.384 -0.855,-4.674 -0.531,-2.015 -0.841,-3.555 -0.874,-4.334 -0.037,-0.873 0.261,-1.629 0.842,-2.17 0.548,-0.551 1.297,-0.85 2.227,-0.888 1.67,-0.079 3.996,1.432 7.235,4.699 -0.155,-0.959 -0.276,-1.948 -0.359,-2.96 -0.173,-0.279 -0.268,-0.585 -0.282,-0.911 -0.03,-0.72 0.468,-1.128 0.645,-1.272 0.356,-0.279 0.759,-0.434 1.165,-0.45 0.038,-0.002 0.076,-0.003 0.113,-0.003 1.136,0 1.868,0.746 1.92,1.967 0.001,0.045 -0.004,0.154 -0.026,0.324 -0.019,0.149 -0.048,0.375 -0.074,0.693 -0.055,0.547 -0.061,0.8 -0.056,0.917 0.005,0.11 0.032,0.538 0.189,1.42 0.572,3.304 1.06,5.472 1.452,6.443 0.143,0.35 0.311,0.817 0.333,1.337 0.025,0.604 -0.181,0.98 -0.359,1.19 C 0.958,-0.296 0.605,-0.024 0,0"/>
          </g>
          <g transform="translate(151.9625,45.201)" id="g116">
            <path id="path118" style="fill:#22323a;fill-opacity:1;fill-rule:nonzero;stroke:none" d="M 0,0 C -0.451,0.365 -0.95,0.56 -1.484,0.577 L -1.708,0.585 -1.896,0.461 c -2.327,-1.546 -4.536,-3.705 -6.714,-6.569 -0.001,1.962 0.149,3.748 0.453,5.42 0.037,0.225 0.075,0.427 0.111,0.613 0.04,0.213 0.076,0.406 0.104,0.589 l 0.009,0.067 -0.003,0.068 c -0.025,0.558 -0.238,1.1 -0.615,1.568 l -0.074,0.079 c -0.522,0.475 -1.034,0.689 -1.576,0.67 -0.282,-0.015 -0.953,-0.156 -1.101,-1.149 -0.562,-3.428 -0.795,-6.283 -0.69,-8.486 0.098,-2.029 0.386,-3.634 0.879,-4.905 0.504,-1.303 1.352,-1.597 2.011,-1.597 0.039,0 0.076,10e-4 0.112,0.003 0.602,0.026 0.874,0.641 1.123,1.204 0.116,0.289 0.22,0.576 0.325,0.872 l 0.174,0.483 c 0.892,2.021 2.529,4.075 4.875,6.117 l -0.215,-4.097 c -0.093,-0.981 -0.125,-1.748 -0.135,-2.267 0.026,-0.528 0.231,-1.003 0.654,-1.482 0.428,-0.436 0.971,-0.663 1.533,-0.634 0.282,0.014 0.954,0.153 1.11,1.217 0.061,0.961 0.107,1.837 0.149,2.624 0.037,0.711 0.07,1.349 0.107,1.911 l 0.001,0.016 c 0.113,2.637 0.133,4.343 0.067,5.707 C 0.754,-0.996 0.511,-0.51 0,0"/>
          </g>
          <g transform="translate(165.1471,39.9793)" id="g120">
            <path id="path122" style="fill:#22323a;fill-opacity:1;fill-rule:nonzero;stroke:none" d="m 0,0 c -0.478,-0.059 -0.91,-0.393 -1.374,-1.042 -0.455,-0.549 -0.772,-0.956 -0.967,-1.24 -0.43,-0.407 -1.009,-0.653 -1.767,-0.748 -0.518,-0.061 -0.855,0.054 -1.175,0.404 -0.35,0.383 -0.567,0.945 -0.664,1.72 -0.275,2.189 0.43,4.097 2.153,5.82 0.486,-0.145 1.078,-0.171 1.793,-0.082 0.611,0.076 1.686,0.454 2.002,2.134 l 0.022,0.12 -0.018,0.12 C -0.215,8.585 -1.209,9.305 -2.673,9.115 -3.771,8.979 -4.698,8.608 -5.53,7.964 -6.867,6.836 -7.888,5.412 -8.563,3.736 -9.266,2.023 -9.503,0.207 -9.269,-1.662 c 0.202,-1.605 0.84,-2.838 1.953,-3.771 0.923,-0.776 2.006,-1.168 3.226,-1.168 0.248,0 0.503,0.016 0.763,0.049 1.365,0.17 2.66,0.903 3.849,2.175 1.034,1.091 1.47,1.955 1.375,2.719 C 1.831,-1.119 1.529,-0.753 1.309,-0.525 0.925,-0.128 0.457,0.06 0,0"/>
          </g>
          <g transform="translate(173.8551,38.4237)" id="g124">
            <path id="path126" style="fill:#22323a;fill-opacity:1;fill-rule:nonzero;stroke:none" d="m 0,0 c -0.309,1.687 -0.406,4.053 -0.289,7.041 l 0.03,0.492 c 0.044,0.699 0.082,1.315 0.107,1.882 l 0.004,0.086 -0.018,0.084 c -0.295,1.443 -1.396,2.135 -2.989,1.894 l -0.212,-0.032 -0.157,-0.144 c -0.472,-0.43 -0.669,-0.97 -0.556,-1.512 0.01,-0.052 0.039,-0.202 0.24,-0.735 0.004,-3.187 0.062,-7.176 0.31,-8.385 0.235,-1.155 0.611,-2.05 1.156,-2.744 0.262,-0.324 1.008,-1.247 2.02,-1.247 0.111,0 0.224,0.01 0.341,0.035 0.496,0.101 0.755,0.376 0.885,0.589 0.124,0.204 0.25,0.553 0.147,1.058 C 0.893,-1.016 0.542,-0.454 0,0"/>
          </g>
          <g transform="translate(171.5787,57.7879)" id="g128">
            <path id="path130" style="fill:#22323a;fill-opacity:1;fill-rule:nonzero;stroke:none" d="m 0,0 0.185,0.029 c 0.628,0.189 1.616,0.832 1.17,3.017 -0.469,2.31 -1.998,2.539 -2.851,2.469 L -1.658,5.502 -1.797,5.42 C -3.109,4.643 -3.292,3.641 -3.205,2.875 c 0.029,-0.142 0.065,-0.27 0.101,-0.394 0.023,-0.078 0.045,-0.153 0.061,-0.229 0.296,-1.456 1.334,-2.253 2.929,-2.253 0.037,0 0.075,0 0.114,0.001"/>
          </g>
          <g transform="translate(181.9762,48.5369)" id="g132">
            <path id="path134" style="fill:#22323a;fill-opacity:1;fill-rule:nonzero;stroke:none" d="m 0,0 c -0.51,1.787 -0.936,3.852 -1.268,6.148 -0.34,2.084 -0.542,3.901 -0.597,5.405 0.995,0.919 0.933,1.798 0.805,2.245 -0.167,0.585 -0.674,1.109 -1.49,1.526 -0.846,0.4 -1.42,0.51 -1.918,0.369 -0.564,-0.161 -0.858,-0.654 -0.874,-1.469 -0.066,-5.143 0.512,-9.898 1.721,-14.135 0.475,-1.666 1.029,-3.542 1.569,-4.944 -0.075,-0.44 -0.04,-0.908 0.108,-1.424 0.039,-0.139 0.143,-0.506 0.344,-1.088 0.134,-0.467 0.242,-0.783 0.307,-0.978 l 0.05,-0.148 c 0.185,-0.652 0.645,-1.293 1.356,-1.898 0.699,-0.62 1.324,-0.925 1.899,-0.925 0.148,0 0.294,0.02 0.435,0.061 0.693,0.198 1.026,0.796 0.801,1.572 C 2.256,-7.354 1.193,-4.186 0,0"/>
          </g>
        </g>
      </g>
    </g>
  </g>
</svg>